<?xml version="1.0" standalone="no"?>
<!DOCTYPE svg PUBLIC "-//W3C//DTD SVG 1.1//EN" "http://www.w3.org/Graphics/SVG/1.1/DTD/svg11.dtd">
<svg xmlns="http://www.w3.org/2000/svg" class="img-fluid" id="outputsvg" style="transform: none; transform-origin: 50% 50%; cursor: move;" width="18240" height="9400" viewBox="0 0 18240 9400"><g id="l3NAkvnD0ll8YcCHoNknTPJ" fill="rgb(255,255,255)" style="transform: none;"><g style="transform: none;"><path id="pvNHtkSRo" d="M0 4700 l0 -4700 9120 0 9120 0 0 4700 0 4700 -9120 0 -9120 0 0 -4700z m4533 4231 c335 -89 596 -351 689 -691 19 -72 23 -109 23 -240 0 -131 -4 -168 -23 -239 -49 -180 -134 -321 -269 -452 -127 -122 -262 -197 -438 -245 -108 -29 -351 -27 -464 4 -177 48 -319 132 -447 264 -124 127 -200 259 -246 429 -19 71 -23 108 -23 239 0 131 4 168 23 240 98 358 373 622 732 701 115 25 329 21 443 -10z m8134 -196 c479 -122 793 -603 708 -1088 -66 -378 -340 -676 -712 -774 -132 -34 -336 -37 -455 -5 -295 80 -518 259 -643 517 -230 473 -38 1044 430 1278 86 43 218 85 305 97 99 14 257 3 367 -25z m-2521 -992 c61 -32 131 -115 149 -176 13 -45 15 -412 15 -3123 l0 -3073 588 -3 c535 -3 591 -5 633 -21 143 -55 222 -222 174 -366 -24 -74 -100 -154 -171 -180 -54 -21 -67 -21 -1534 -21 -1428 0 -1482 1 -1530 19 -74 28 -125 73 -159 143 -74 148 -14 321 137 395 l57 28 608 3 607 3 0 2909 0 2910 -1702 0 -1703 0 -50 24 c-57 26 -126 96 -151 153 -26 58 -24 176 4 234 30 61 98 125 158 149 48 19 92 19 1939 17 l1890 -2 41 -22z m-7653 1 c64 -22 139 -91 168 -156 17 -39 23 -71 23 -123 0 -119 -61 -211 -173 -264 -56 -25 -58 -26 -371 -32 l-315 -5 -95 -32 c-124 -41 -233 -106 -327 -195 -128 -121 -207 -254 -256 -425 l-22 -77 -3 -1392 -3 -1393 1841 0 1840 0 0 634 c0 704 1 722 66 890 62 159 140 272 286 411 224 214 500 343 878 412 83 15 192 17 868 20 538 3 790 1 825 -7 111 -23 193 -106 223 -221 15 -57 15 -68 0 -128 -19 -76 -55 -133 -110 -173 -81 -59 -71 -58 -874 -58 -818 0 -861 -3 -1049 -65 -131 -44 -202 -80 -300 -154 -86 -65 -147 -136 -191 -222 l-27 -54 -3 -642 -3 -643 1069 0 c1222 0 1127 7 1222 -89 84 -84 108 -177 75 -288 -23 -78 -74 -136 -152 -175 l-68 -33 -1073 -3 -1073 -3 3 -597 3 -598 35 -69 c92 -183 301 -321 610 -402 58 -15 156 -17 875 -22 l810 -6 50 -23 c154 -71 223 -250 151 -396 -29 -60 -73 -103 -139 -138 l-42 -23 -760 -3 c-786 -3 -869 0 -1058 39 -340 69 -680 258 -866 480 -115 137 -176 250 -228 415 l-28 89 -3 627 -3 628 -1840 0 -1840 0 3 -477 c4 -456 5 -482 26 -558 82 -296 288 -514 582 -617 l95 -33 1100 -5 c912 -4 1106 -7 1135 -19 100 -40 170 -121 191 -218 27 -131 -35 -257 -156 -321 l-50 -27 -1065 -3 c-746 -2 -1093 0 -1158 8 -258 32 -531 146 -735 308 -152 121 -308 314 -397 491 -56 112 -114 292 -137 421 -17 99 -18 220 -18 2260 0 2421 -6 2238 75 2481 81 244 200 432 388 611 215 204 484 337 779 382 135 21 654 21 716 0z m13382 -11 c282 -65 514 -187 709 -373 266 -254 419 -566 456 -929 14 -147 14 -4179 -1 -4327 -65 -644 -528 -1157 -1172 -1297 -101 -22 -109 -22 -1052 -22 l-950 0 -46 23 c-128 63 -196 209 -159 342 24 86 106 174 189 202 27 9 273 14 971 18 l935 5 95 33 c150 52 231 103 345 217 132 132 193 237 242 415 17 62 18 180 18 2230 0 2079 -1 2168 -19 2235 -87 327 -351 584 -668 649 -65 14 -166 16 -651 16 -336 0 -596 4 -626 10 -103 19 -177 74 -220 163 -55 114 -34 235 59 328 92 93 48 88 800 85 621 -2 660 -3 745 -23z m-1125 -3209 c54 -26 114 -84 142 -139 29 -56 35 -158 14 -223 -23 -68 -91 -143 -158 -173 l-53 -24 -780 -5 c-707 -5 -783 -7 -810 -22 -64 -36 -125 -109 -158 -190 -22 -52 -22 -61 -27 -833 l-5 -780 -28 -57 c-34 -69 -91 -121 -164 -148 -112 -42 -216 -18 -304 69 -95 96 -90 42 -87 957 l4 789 23 85 c52 187 125 322 246 449 134 141 297 231 473 261 26 4 403 7 837 6 782 -1 790 -1 835 -22z m-1957 -3013 c99 -34 210 -129 255 -218 168 -328 -103 -712 -468 -662 -130 18 -272 115 -333 227 -71 132 -76 285 -13 417 100 212 337 312 559 236z"/><path id="p3mOv1hAO" d="M4227 8370 c-113 -19 -222 -101 -274 -208 -25 -51 -28 -67 -28 -162 0 -95 3 -111 28 -162 36 -74 101 -139 175 -175 68 -33 193 -44 269 -22 69 19 156 82 197 142 50 73 67 129 67 217 0 43 -7 94 -16 120 -61 173 -240 279 -418 250z"/><path id="pCuZQoU23" d="M12323 8166 c-230 -75 -337 -332 -225 -539 34 -63 109 -132 180 -165 50 -23 69 -27 152 -27 84 1 102 4 155 30 76 36 143 104 181 180 26 54 29 70 29 160 0 90 -3 106 -29 160 -64 128 -179 205 -320 211 -52 3 -96 -1 -123 -10z"/></g></g><g id="l6ytHnLD5IuMpl28qkf7EZU" fill="rgb(19,37,101)" style="transform: none;"><g style="transform: none;"><path id="p15YKLocNY" d="M4090 8941 c-359 -79 -634 -343 -732 -701 -19 -72 -23 -109 -23 -240 0 -131 4 -168 23 -239 46 -170 122 -302 246 -429 128 -132 270 -216 447 -264 113 -31 356 -33 464 -4 176 48 311 123 438 245 135 131 220 272 269 452 19 71 23 108 23 239 0 131 -4 168 -23 240 -93 340 -354 602 -689 691 -114 31 -328 35 -443 10z m325 -588 c100 -34 194 -129 230 -233 9 -26 16 -77 16 -120 0 -88 -17 -144 -67 -217 -41 -60 -128 -123 -197 -142 -76 -22 -201 -11 -269 22 -74 36 -139 101 -175 175 -25 51 -28 67 -28 162 0 95 3 111 28 162 84 172 282 253 462 191z"/><path id="prBCeokQw" d="M12300 8760 c-87 -12 -219 -54 -305 -97 -191 -96 -349 -260 -441 -457 -228 -495 8 -1087 516 -1293 127 -51 206 -65 355 -66 119 0 155 4 238 26 313 83 563 311 669 611 216 609 -217 1250 -865 1280 -56 3 -131 1 -167 -4z m285 -616 c75 -35 143 -102 181 -179 26 -54 29 -70 29 -160 0 -90 -3 -106 -29 -160 -38 -76 -105 -144 -181 -180 -53 -26 -71 -29 -155 -30 -83 0 -102 4 -152 27 -71 33 -146 102 -180 165 -112 207 -5 464 225 539 68 23 191 12 262 -22z"/><path id="pD5hBUm62" d="M6276 7750 c-60 -24 -128 -88 -158 -149 -28 -58 -30 -176 -4 -234 25 -57 94 -127 151 -153 l50 -24 1703 0 1702 0 0 -2910 0 -2909 -607 -3 -608 -3 -57 -28 c-235 -115 -221 -445 22 -538 48 -18 102 -19 1530 -19 1467 0 1480 0 1534 21 71 26 147 106 171 180 48 144 -31 311 -174 366 -42 16 -98 18 -633 21 l-588 3 0 3073 c0 2711 -2 3078 -15 3123 -18 61 -88 144 -149 176 l-41 22 -1890 2 c-1847 2 -1891 2 -1939 -17z"/><path id="pN4WuuSPJ" d="M1777 7744 c-295 -45 -564 -178 -779 -382 -188 -179 -307 -367 -388 -611 -81 -243 -75 -60 -75 -2481 0 -2421 -6 -2238 75 -2481 159 -480 535 -833 1027 -963 174 -46 214 -47 1343 -44 l1065 3 50 27 c121 64 183 190 156 321 -21 97 -91 178 -191 218 -29 12 -223 15 -1135 19 l-1100 5 -95 33 c-153 53 -259 121 -366 233 -106 113 -174 233 -216 384 -21 76 -22 102 -26 558 l-3 477 1840 0 1840 0 3 -628 3 -627 28 -89 c52 -165 113 -278 228 -415 186 -222 526 -411 866 -480 189 -39 272 -42 1058 -39 l760 3 42 23 c66 35 110 78 139 138 72 146 3 325 -151 396 l-50 23 -810 6 c-875 6 -828 3 -1005 61 -78 25 -204 86 -268 130 -80 54 -174 157 -212 233 l-35 69 -3 598 -3 597 1073 3 1073 3 68 33 c78 39 129 97 152 175 33 111 9 204 -75 288 -95 96 0 89 -1222 89 l-1069 0 3 643 3 642 27 54 c44 86 105 157 191 222 98 74 169 110 300 154 188 62 231 65 1049 65 803 0 793 -1 874 58 55 40 91 97 110 173 15 60 15 71 0 128 -30 115 -112 198 -223 221 -35 8 -287 10 -825 7 -676 -3 -785 -5 -868 -20 -378 -69 -654 -198 -878 -412 -146 -139 -224 -252 -286 -411 -65 -168 -66 -186 -66 -890 l0 -634 -1840 0 -1841 0 3 1393 3 1392 22 77 c49 171 128 304 256 425 94 89 203 154 327 195 l95 32 315 5 c313 6 315 7 371 32 112 53 173 145 173 264 0 92 -29 160 -95 219 -81 73 -101 76 -433 75 -193 -1 -321 -6 -379 -15z"/><path id="pAqhlTUFH" d="M14430 7743 c-69 -25 -151 -113 -174 -187 -42 -134 23 -291 146 -349 71 -34 137 -37 715 -37 485 0 586 -2 651 -16 317 -65 581 -322 668 -649 18 -67 19 -156 19 -2235 0 -2050 -1 -2168 -18 -2230 -49 -178 -110 -283 -242 -415 -114 -114 -195 -165 -345 -217 l-95 -33 -935 -5 c-698 -4 -944 -9 -971 -18 -83 -28 -165 -116 -189 -202 -37 -133 31 -279 159 -342 l46 -23 950 0 c943 0 951 0 1052 22 644 140 1107 653 1172 1297 15 148 15 4180 1 4327 -58 581 -447 1071 -995 1255 -205 68 -193 67 -915 70 -582 3 -660 1 -700 -13z"/><path id="pyOTkdurW" d="M13078 4540 c-176 -30 -339 -120 -473 -261 -121 -127 -194 -262 -246 -449 l-23 -85 -4 -789 c-3 -915 -8 -861 87 -957 88 -87 192 -111 304 -69 73 27 130 79 164 148 l28 57 5 780 c5 772 5 781 27 833 33 81 94 154 158 190 27 15 103 17 810 22 l780 5 53 24 c67 30 135 105 158 173 21 65 15 167 -14 223 -28 55 -88 113 -142 139 -45 21 -53 21 -835 22 -434 1 -811 -2 -837 -6z"/><path id="p10aK1KSti" d="M12543 1525 c-136 -30 -249 -122 -309 -250 -63 -132 -58 -285 13 -417 36 -67 130 -153 205 -188 301 -141 648 83 648 417 0 55 -24 153 -52 206 -25 50 -99 130 -156 169 -93 64 -234 90 -349 63z"/></g></g></svg>